<?xml version="1.0" standalone="no"?><!DOCTYPE svg PUBLIC "-//W3C//DTD SVG 1.1//EN" "http://www.w3.org/Graphics/SVG/1.1/DTD/svg11.dtd"><svg t="1754671644731" class="icon" viewBox="0 0 1024 1024" version="1.1" xmlns="http://www.w3.org/2000/svg" p-id="10790" xmlns:xlink="http://www.w3.org/1999/xlink" width="200" height="200"><path d="M657.002667 737.28c-5.12 5.12-5.12 5.12-5.12 10.24s0 5.12 5.12 10.24c25.6 25.6 46.08 61.44 51.2 97.28 5.12 25.6 30.72 40.96 56.32 40.96 25.6-5.12 46.08-25.6 46.08-51.2s-20.48-51.2-46.08-51.2c-35.84-5.12-66.56-25.6-92.16-51.2 0-10.24-10.24-10.24-15.36-5.12z" fill="#FB6500" p-id="10791"></path><path d="M872.042667 655.36c-10.24 10.24-15.36 20.48-15.36 30.72-5.12 35.84-25.6 66.56-51.2 92.16-5.12 5.12-5.12 10.24-5.12 15.36s5.12 10.24 10.24 10.24 10.24 0 10.24-5.12c25.6-25.6 61.44-46.08 97.28-51.2 20.48-5.12 35.84-25.6 40.96-46.08 0-20.48-10.24-40.96-30.72-51.2-15.36-15.36-40.96-10.24-56.32 5.12z" fill="#0082EF" p-id="10792"></path><path d="M723.562667 506.88c-15.36 15.36-20.48 35.84-10.24 56.32 5.12 20.48 25.6 30.72 46.08 35.84 35.84 5.12 66.56 25.6 92.16 51.2 5.12 5.12 10.24 5.12 15.36 5.12s10.24-5.12 10.24-10.24 0-10.24-5.12-10.24c-25.6-25.6-46.08-61.44-51.2-97.28-5.12-20.48-20.48-30.72-35.84-35.84-30.72-15.36-46.08-10.24-61.44 5.12z" fill="#2DBC00" p-id="10793"></path><path d="M697.962667 588.8c-25.6 30.72-61.44 46.08-102.4 51.2-20.48 5.12-30.72 20.48-35.84 35.84-5.12 20.48 0 35.84 15.36 51.2s35.84 20.48 56.32 10.24c20.48-5.12 30.72-25.6 35.84-46.08 5.12-35.84 25.6-66.56 51.2-92.16 5.12-5.12 5.12-10.24 0-20.48-10.24 5.12-15.36 5.12-20.48 10.24z" fill="#FFCC00" p-id="10794"></path><path d="M375.402667 128c-92.16 10.24-179.2 51.2-240.64 117.76-25.6 25.6-46.08 51.2-61.44 81.92-46.08 92.16-40.96 204.8 20.48 291.84 15.36 25.6 46.08 56.32 71.68 81.92l-10.24 92.16v20.48c0 10.24 5.12 20.48 15.36 25.6s20.48 5.12 25.6 0l25.6-15.36 81.92-40.96c40.96 10.24 76.8 15.36 117.76 15.36 51.2 0 97.28-10.24 148.48-25.6-25.6-10.24-40.96-30.72-35.84-56.32-46.08 15.36-102.4 20.48-148.48 15.36h-10.24c-20.48 0-35.84-5.12-56.32-10.24-10.24-5.12-20.48 0-30.72 5.12L221.802667 768h-10.24s-5.12 0-5.12-5.12v-10.24l5.12-10.24 5.12-20.48 5.12-20.48c5.12-10.24 0-25.6-10.24-30.72-25.6-20.48-51.2-40.96-66.56-71.68-46.08-66.56-51.2-158.72-15.36-230.4 15.36-35.84 30.72-56.32 51.2-76.8 51.2-51.2 122.88-87.04 199.68-92.16 25.6-5.12 56.32-5.12 81.92 0 76.8 10.24 148.48 40.96 199.68 97.28 20.48 20.48 35.84 40.96 46.08 66.56 15.36 30.72 25.6 66.56 25.6 102.4v10.24c25.6-20.48 51.2-15.36 66.56 0v5.12c5.12-51.2-5.12-102.4-30.72-148.48-15.36-30.72-35.84-61.44-56.32-81.92-66.56-66.56-148.48-107.52-240.64-117.76-30.72-5.12-61.44-5.12-97.28-5.12z" fill="#3970BA" p-id="10795"></path></svg>