<?xml version="1.0" standalone="no"?><!DOCTYPE svg PUBLIC "-//W3C//DTD SVG 1.1//EN" "http://www.w3.org/Graphics/SVG/1.1/DTD/svg11.dtd"><svg t="1754671556409" class="icon" viewBox="0 0 1228 1024" version="1.1" xmlns="http://www.w3.org/2000/svg" p-id="7776" xmlns:xlink="http://www.w3.org/1999/xlink" width="239.84375" height="200"><path d="M848.5376 306.8928c12.1344 0 24.1152 0.512 35.9936 1.4848C845.6192 132.8128 664.2176 0 446.1568 0 199.68 0 0 169.5744 0 378.6752c0 121.344 67.1744 229.2736 171.6224 298.5472-8.192 27.136-41.6768 131.1744-41.6768 131.1744l143.2064-80.5376a514.1504 514.1504 0 0 0 197.2736 28.928 298.5984 298.5984 0 0 1-20.1728-107.52c0-188.7744 178.688-342.3744 398.336-342.3744M291.84 309.9648c-35.84 0-64.9728-29.184-64.9728-65.1264 0-35.9936 29.1328-65.1776 64.9728-65.1776s65.024 29.184 65.024 65.1776A65.024 65.024 0 0 1 291.84 309.9648m298.496-130.304c35.84 0 64.9216 29.184 64.9216 65.1776a65.024 65.024 0 0 1-64.9728 65.1264c-35.84 0-64.9216-29.184-64.9216-65.1264a65.024 65.024 0 0 1 64.9216-65.1776" fill="#62D3A2" p-id="7777"></path><path d="M1219.1232 649.2672c0-173.6704-165.888-314.5216-370.5856-314.5216-204.6464 0-370.5344 140.8-370.5344 314.5216s165.888 314.5728 370.5344 314.5728a427.008 427.008 0 0 0 143.6672-24.576l118.9888 66.8672s-27.8528-86.3744-34.6624-108.8512c86.784-57.6 142.592-147.2512 142.592-248.0128m-237.056-46.336a50.944 50.944 0 0 1 0-101.9392c28.0064 0 50.7904 22.8352 50.7904 50.9952s-22.784 50.944-50.8416 50.944m-242.944 0a50.8928 50.8928 0 0 1-50.7904-50.944c0-28.16 22.784-50.9952 50.7904-50.9952 28.16 0 50.8416 22.8352 50.8416 50.9952s-22.7328 50.944-50.8416 50.944" fill="#62D3A2" p-id="7778"></path></svg>