<svg width="60" height="60" viewBox="0 0 60 60" fill="none" xmlns="http://www.w3.org/2000/svg">
  <rect width="60" height="60" rx="12" fill="#409EFF"/>
  <path d="M15 20h30v20H15z" fill="white" opacity="0.2"/>
  <path d="M20 15v30M30 15v30M40 15v30" stroke="white" stroke-width="2" opacity="0.6"/>
  <path d="M15 25h30M15 35h30" stroke="white" stroke-width="2" opacity="0.6"/>
  <circle cx="25" cy="30" r="3" fill="white"/>
  <circle cx="35" cy="25" r="2" fill="white" opacity="0.8"/>
  <circle cx="35" cy="35" r="2" fill="white" opacity="0.8"/>
  <path d="M25 27l8-2M25 33l8 2" stroke="white" stroke-width="1.5" opacity="0.9"/>
  <!-- 添加安全盾牌图标 -->
  <path d="M47 18l-5-3-5 3v8c0 3 2 5 5 5s5-2 5-5v-8z" fill="white" opacity="0.9"/>
  <path d="M42 22l2 2 4-4" stroke="#409EFF" stroke-width="1.5" fill="none"/>
</svg>
